<?xml version="1.0" standalone="no"?><!DOCTYPE svg PUBLIC "-//W3C//DTD SVG 1.1//EN" "http://www.w3.org/Graphics/SVG/1.1/DTD/svg11.dtd"><svg t="1627539088551" class="icon" viewBox="0 0 1024 1024" version="1.1" xmlns="http://www.w3.org/2000/svg" p-id="2796" xmlns:xlink="http://www.w3.org/1999/xlink" width="200" height="200"><defs><style type="text/css">@font-face { font-family: feedback-iconfont; src: url("//at.alicdn.com/t/font_1031158_1uhr8ri0pk5.eot?#iefix") format("embedded-opentype"), url("//at.alicdn.com/t/font_1031158_1uhr8ri0pk5.woff2") format("woff2"), url("//at.alicdn.com/t/font_1031158_1uhr8ri0pk5.woff") format("woff"), url("//at.alicdn.com/t/font_1031158_1uhr8ri0pk5.ttf") format("truetype"), url("//at.alicdn.com/t/font_1031158_1uhr8ri0pk5.svg#iconfont") format("svg"); }
</style></defs><path d="M392 439.3l-148-73.2c-16.3-8.1-30.5 0.1-31.7 18.3l-10.6 164.8c-1.2 18.2 11.1 39.5 27.5 47.6L377.1 670c16.3 8.1 30.6-0.1 31.7-18.3l10.6-164.8c1.3-18.2-11.1-39.5-27.4-47.6z m339.3-195.9l-148-73.2c-16.3-8.1-30.6 0.1-31.7 18.3L541 353.2c-1.2 18.2 11.1 39.5 27.5 47.6l148 73.2c16.3 8.1 30.6-0.1 31.7-18.3L758.7 291c1.2-18.2-11-39.5-27.4-47.6z" fill="#AA733D" p-id="2797"></path><path d="M559.9 724.4c5.7 9.9 16.6 11.4 27 5.4l81.9-47.4c8-4.6 10.8-14.6 6.3-22.6-4.6-8-14.8-10.7-22.8-6.2L599.7 684l13.6-33.2c14.8-36.2 20.5-56.1 5.9-81.4l-0.2-0.4c-16.3-28.2-47.6-34.6-78.9-16.5-22.9 13.2-32.3 29.6-36.3 50.6-0.8 4.2 0 9 2.1 12.5 4.9 8.4 15.5 11.2 23.8 6.4 5.2-3 7.7-7.6 8.4-11.2 3.1-13.9 7.5-21.8 17-27.4 11.9-6.8 24.2-4.8 31.6 7.9 7.2 12.5 4.8 25.2-5.2 51.4l-22.6 60c-2.9 7.9-2.7 15.3 1 21.7z" fill="#E5E5E5" p-id="2798"></path><path d="M900.9 506c10.5 24.5 6.1 52.3-9.8 72.9-36.9 44.8-118.5 108.5-221.2 169.1-100.4 59.1-193.4 98.9-250.1 110.2-26.4 4.3-53.7-5.9-70.2-27.8 0.3 0.4 0.4 1 0.8 1.4L110.2 521c0.1-0.3 0.6-0.2 0.2-1-6.8-11.7-2.6-26.8 9.3-33.6 4.5-2.7 9.6-3.2 14.5-2.8l222.5 45.9-16.3-294.3c-0.4-12.3 5.9-24.5 17.5-31.1 10.8-6.3 23.5-5.6 33.6-0.2l248.1 162.2 70.1-211.6c0.1 0 0.2 0.8 0.2 0.5 1.7-5.9 5.7-11.2 11.5-14.6 11.9-6.8 26.9-2.9 33.7 8.8 0.3 0.6 0.4 0.1 0.8 0.2l148 361.2c-1-1.6-2.2-2.7-3-4.6z" fill="#CA9561" p-id="2799"></path><path d="M487.1 425.2c65.6-37.8 149.4-15.4 187.4 50.2 37.8 65.6 15.4 149.4-50.2 187.4-65.6 37.8-149.4 15.4-187.4-50.2s-15.4-149.4 50.2-187.4z" fill="#AA733D" p-id="2800"></path><path d="M600.1 619.3c30.1-17.4 37.7-46.7 23.1-72.2l-0.2-0.4c-14.5-25.1-37.9-24.3-58.1-16.9l11.8-40.5c2.4-8.3 3.6-14.4-0.8-21.7-4.6-8.1-13.9-9.4-22.6-4.4l-65.6 38.2c-6.9 4-9.4 13.1-5.4 20.1 4 6.9 13.1 9.4 20.1 5.4l41.4-23.9-10.8 41.4c-1.9 7.2-1.7 11.8 0.6 15.8 4 6.9 13.1 9.4 20.1 5.4l4.6-2.7c16.5-9.6 29.9-9.1 36.3 1.9l0.2 0.4c5.8 10.1 1.5 21-9.6 27.4-10.6 6.2-20.6 7.4-32.2 5.2-3.5-0.5-7.4-0.6-11.6 1.8-7.7 4.4-10.5 14.8-6.1 22.5 2.5 4.2 7.1 6.9 11.1 7.7 16.5 3 34.5 0.6 53.7-10.5z" fill="#CA9561" p-id="2801"></path></svg>