<?xml version="1.0" standalone="no"?><!DOCTYPE svg PUBLIC "-//W3C//DTD SVG 1.1//EN" "http://www.w3.org/Graphics/SVG/1.1/DTD/svg11.dtd"><svg t="1627985869430" class="icon" viewBox="0 0 1024 1024" version="1.1" xmlns="http://www.w3.org/2000/svg" p-id="1479" xmlns:xlink="http://www.w3.org/1999/xlink" width="200" height="200"><defs><style type="text/css"></style></defs><path d="M0 943.786667h66.56v-100.693334z" fill="#BF7500" p-id="1480"></path><path d="M460.8 0L0 406.186667v537.6L1024 0z" fill="#FAA725" p-id="1481"></path><path d="M261.12 552.96l18.773333-17.066667-66.56-75.093333 52.906667-46.08-6.826667-6.826667-68.266666 61.44-13.653334-15.36 68.266667-61.44-6.826667-8.533333-59.733333 54.613333-35.84-39.253333 151.893333-136.533333 35.84 39.253333-64.853333 58.026667 6.826667 6.826666 71.68-64.853333 13.653333 15.36-71.68 64.853333 6.826667 6.826667 56.32-49.493333 66.56 75.093333 18.773333-17.066667 13.653333 15.36-174.08 155.306667-13.653333-15.36zM187.733333 402.773333l22.186667-18.773333-10.24-10.24-22.186667 18.773333 10.24 10.24z m42.666667-37.546666l22.186667-18.773334-10.24-10.24-22.186667 18.773334 10.24 10.24z m107.52 11.946666l-87.04 76.8 5.12 6.826667 87.04-76.8-5.12-6.826667z m-44.373333-68.266666l-10.24-10.24-22.186667 18.773333 10.24 10.24 22.186667-18.773333zM273.066667 477.866667l87.04-76.8-5.12-6.826667-87.04 76.8 5.12 6.826667z m15.36 18.773333l87.04-76.8-5.12-6.826667-87.04 76.8 5.12 6.826667z m17.066666 17.066667l87.04-76.8-6.826666-6.826667-87.04 76.8 6.826666 6.826667zM312.32 250.88l61.44-54.613333 20.48 23.893333-15.36 13.653333 95.573333 107.52c6.826667 6.826667 10.24 13.653333 11.946667 20.48 1.706667 6.826667 0 11.946667-3.413333 17.066667-3.413333 5.12-11.946667 13.653333-27.306667 27.306667-6.826667-6.826667-15.36-11.946667-23.893333-18.773334 5.12-3.413333 11.946667-8.533333 17.066666-13.653333 5.12-3.413333 5.12-8.533333 0-13.653333L356.693333 256l-22.186666 20.48-22.186667-25.6z m63.146667-58.026667l105.813333-95.573333L501.76 119.466667l-46.08 40.96 11.946667 18.773333L512 139.946667l71.68 80.213333-23.893333 20.48-52.906667-58.026667-54.613333 47.786667 52.906666 59.733333-23.893333 20.48-71.68-80.213333 30.72-27.306667-11.946667-18.773333-34.133333 30.72-18.773333-22.186667z m102.4 34.133334l22.186666-20.48c15.36 17.066667 25.6 32.426667 34.133334 46.08 25.6-5.12 52.906667-8.533333 80.213333-10.24l1.706667 32.426666c-20.48 0-44.373333 3.413333-73.386667 5.12 3.413333 20.48-1.706667 46.08-18.773333 76.8-10.24-3.413333-20.48-6.826667-34.133334-10.24 10.24-15.36 15.36-29.013333 18.773334-40.96s1.706667-25.6-3.413334-37.546666c-3.413333-11.946667-13.653333-25.6-27.306666-40.96z" fill="#FFFFFF" p-id="1482"></path></svg>