<svg xmlns="http://www.w3.org/2000/svg"><defs><font id="montserratregular" horiz-adv-x="561"><font-face units-per-em="2048" ascent="1638" descent="-410"/><glyph horiz-adv-x="0"/><glyph horiz-adv-x="682"/><glyph horiz-adv-x="0"/><glyph horiz-adv-x="0"/><glyph horiz-adv-x="681"/><glyph/><glyph unicode="!" horiz-adv-x="604" d="M152 136.5q0 62.5 45 107.5t107.5 45T412 244t45-107.5T412 29 304.5-16 197 29t-45 107.5zm8 1065.5v264h286v-264l-61-739H221z"/><glyph unicode="&quot;" horiz-adv-x="765" d="M158 928v504h159V928H158zm291 0v504h159V928H449z"/><glyph unicode="#" horiz-adv-x="1505" d="M88 328l45 225h205l59 340H164l45 225h227l60 348h227l-59-348h301l59 348h229l-63-348h229l-45-225h-221l-59-340h252l-46-225h-243L999 0H772l57 328H528L471 0H242l57 328H88zm477 225h301l62 340H627z"/><glyph unicode="$" horiz-adv-x="1267" d="M76 225l149 178q172-150 355-178v398q-231 55-339 145t-108 267 124 290 323 123v102h131v-104q225-16 426-154l-133-188q-135 96-293 119V838h6q236-55 346.5-149.5T1174 415t-127-292T711 0v-147H580V2Q299 31 76 225zm307 834.5q0-68.5 41-108.5t156-77v355q-93-8-145-54.5t-52-115zM711 219q98 10 155.5 57.5t57.5 119T879 509t-168 79V219z"/><glyph unicode="%" horiz-adv-x="1609" d="M90 1139q0 135 89 231t221 96 220.5-95 88.5-230-89.5-231.5T398 813t-220 95.5T90 1139zM141 0l1049 1432h264L406 0H141zm140 1136.5q0-61.5 34.5-103.5t85-42 83 42 32.5 103.5-35 103.5-85 42-82.5-42-32.5-103.5zM903 309q0 135 89 231.5t221.5 96.5 220.5-95.5 88-230.5-89.5-231T1211-16 991 79t-88 230zm195-5.5q0-61.5 34.5-103.5t85-42 83 42 32.5 103.5-34.5 103.5-85 42-83-42-32.5-103.5z"/><glyph unicode="&amp;" horiz-adv-x="1421" d="M100 401q0 231 336 412-84 96-117.5 157.5T285 1126q0 164 120.5 252t284.5 88 278.5-84 114.5-235q0-203-327-383 164-201 266-307 63 94 98 219l168-119q-53-141-121-248 82-84 209-203L1223-37l-189 187Q854-16 584-16 383-16 241.5 95.5T100 401zm228-10q0-92 77.5-150.5T612 182t275 119Q680 518 559 666 328 541 328 391zm184 749.5q0-57.5 27.5-103.5T635 909q231 115 231 213 0 82-54 122t-122.5 40-123-43-54.5-100.5z"/><glyph unicode="'" horiz-adv-x="475" d="M158 928v504h159V928H158z"/><glyph unicode="(" horiz-adv-x="679" d="M102 639q0 256 83 514t184 397h243q-119-166-200.5-421T330 638.5t82-490T612-272H369Q269-133 185.5 125T102 639z"/><glyph unicode=")" horiz-adv-x="679" d="M68-272q119 166 200.5 420.5t81.5 490-82 490.5-200 421h243q100-139 183.5-397T578 639t-83-514-184-397H68z"/><glyph unicode="*" horiz-adv-x="884" d="M125 1001l209 105-209 102 70 121 192-129-14 232h139l-14-232 192 127 70-119-211-102 211-105-70-120-194 131 16-234H373l16 236-194-131z"/><glyph unicode="+" horiz-adv-x="1163" d="M98 696v193h391v385h185V889h391V696H674V307H489v389H98z"/><glyph unicode="," horiz-adv-x="575" d="M135 133q0 66 45 110t106.5 44T394 243t46-105.5T385-12L262-215H143L219-2q-84 39-84 135z"/><glyph unicode="-" horiz-adv-x="974" d="M147 504v215h680V504H147z"/><glyph unicode="." horiz-adv-x="573" d="M135 137.5q0 63.5 44 107.5t107.5 44T395 245t45-107.5T395 29 286.5-16 179 29t-44 108.5z"/><glyph unicode="/" horiz-adv-x="1202" d="M57-240l887 1901h205L262-240H57z"/><glyph unicode="0" horiz-adv-x="1409" d="M121 725q0 338 145.5 539.5t438 201.5 438-201.5T1288 725t-145.5-539.5T704.5-16t-438 201.5T121 725zm233 0q0-240 85-387.5T704.5 190 968 336.5t83 388.5-83 388.5T704.5 1260 439 1112.5 354 725z"/><glyph unicode="1" horiz-adv-x="780" d="M59 1217v215h521V0H350v1217H59z"/><glyph unicode="2" horiz-adv-x="1206" d="M102 1182q94 141 208 212.5t293 71.5 314.5-113.5T1053 1042q0-111-57.5-211T784 573L449 231h649V0H119v205l434 436q145 147 206.5 231t61.5 170-65.5 146.5T590 1249q-176 0-293-180z"/><glyph unicode="3" horiz-adv-x="1183" d="M80 131l102 195q176-123 369-123 125 0 206 58t81 168-90.5 175.5T498 670q-80 0-154-23v184l332 386H158v215h837v-189L649 856q197-6 307.5-124T1067 451q0-219-148.5-344t-382-125T80 131z"/><glyph unicode="4" horiz-adv-x="1171" d="M76 360v213l526 859h264L348 580h342v262h230V580h172V360H920V0H690v360H76z"/><glyph unicode="5" horiz-adv-x="1185" d="M102 176l129 176q16-16 44-38.5T389 253t188.5-38T764 276.5t84 179-89 182T533.5 702 274 635L172 745v689h823v-220H391V862q90 49 205 49 201 0 346-120.5T1087 463 935.5 120 563-16q-289 0-461 192z"/><glyph unicode="6" horiz-adv-x="1269" d="M123 688q0 221 47 368.5T299 1290q160 168 392.5 168t420.5-145l-121-178q-47 41-126 73.5T725 1241q-190 0-280.5-129T352 764q51 57 147.5 107.5T713 922q193 0 322.5-128T1165 454t-140-341T672-16q-344 0-475 307-74 176-74 397zm268-226.5q0-109.5 80-188T672 195t200.5 70.5 79.5 180T878.5 632 681 709t-207-69-83-178.5z"/><glyph unicode="7" horiz-adv-x="1159" d="M94 1020v412h1008v-215L496 0H229l592 1212H313v-192H94z"/><glyph unicode="8" horiz-adv-x="1302" d="M117 418q0 238 207 368-154 127-154 292t137 273.5T651 1460t344.5-108.5T1133 1078 979 786q207-131 207-368 0-184-147.5-309t-387-125-387 124.5T117 418zm239 8q0-113 94.5-173t201-60T852 253t94 173-90 174.5T651.5 662t-205-61.5T356 426zm37 632q0-91 77-153.5T651.5 842t181 62.5T909 1058t-76.5 152.5-181 61.5-181.5-61.5-77-152.5z"/><glyph unicode="9" horiz-adv-x="1267" d="M104 988q0 212 140.5 341T598 1458q344 0 475-307 74-176 74-397.5T1100 385 971 152Q811-16 578.5-16T158 129l121 178q47-41 126-73.5T545 201q190 0 280 129t93 348q-51-57-147.5-107.5T557 520q-193 0-323 128T104 988zm220 7.5Q324 885 394.5 809T589 733t207 68.5T879 980t-80 188.5-200 78.5-197.5-70.5-77.5-181z"/><glyph unicode=":" horiz-adv-x="600" d="M147 137.5q0 63.5 44.5 107.5T299 289t108.5-44T453 137.5 407.5 29 299-16 191.5 29 147 137.5zm0 501q0 63.5 44.5 108T299 791t108.5-44.5 45.5-108T407.5 530 299 485t-107.5 45T147 638.5z"/><glyph unicode=";" horiz-adv-x="606" d="M150 135q0 66 45 110t107.5 44T411 245t46-103.5T401-12L276-215H158L233-2q-83 43-83 137zm0 503.5q0 63.5 44 108T301.5 791 410 746.5t45-108T410 530t-108.5-45T194 530t-44 108.5z"/><glyph unicode="&lt;" horiz-adv-x="1212" d="M92 684v258l965 447v-234L336 829v-22l721-334V240z"/><glyph unicode="=" horiz-adv-x="1277" d="M123 504v192h1032V504H123zm0 385v192h1032V889H123z"/><glyph unicode="&gt;" horiz-adv-x="1212" d="M156 240v233l721 334v22l-721 326v234l964-447V684z"/><glyph unicode="?" horiz-adv-x="1040" d="M74 1073q20 182 142 285.5T520 1462t297-99 115-278q0-123-68-204-39-49-59.5-69.5t-54-52.5-57-55.5T655 664q-37-45-37-127v-93H387v125q0 82 19.5 122T492 797l149 149q47 51 47 127t-49 126-127 50-130-48-60-128H74zm274-932.5q0 62.5 46 107.5t110.5 45 112-44T664 142.5 617.5 35t-111-45T395 34t-47 106.5z"/><glyph unicode="@" horiz-adv-x="1851" d="M104 545q0 344 244 588.5T937 1378t581.5-244.5T1755 537q0-221-84-357.5T1448 43q-100 0-159.5 68.5T1225 307Q1110 43 858 43q-176 0-310 141.5T414 543t127 364.5T877 1055q94 0 178-49.5T1176 889v137h196V311q0-143 113-143 63 0 115.5 93t52.5 245q0 328-198 555t-510 227-531-219-219-524T401.5 36 913-168q246 0 377 123l45-76q-72-61-190.5-99T913-258q-344 0-576.5 229.5T104 545zm517 7q0-128 74.5-223.5T899 233t204 93.5 75 225.5-78 218-203 86-200.5-88T621 552z"/><glyph unicode="A" horiz-adv-x="1519" d="M0 0l631 1432h258L1520 0h-258l-144 326H401L258 0H0zm500 549h520l-260 590z"/><glyph unicode="B" horiz-adv-x="1445" d="M199 0v1432h557q145 0 250.5-35t156.5-94q98-111 99-250 0-168-107-250-39-29-53.5-36t-50.5-24q133-29 211.5-120t78.5-226q0-150-102-264Q1118 0 825 0H199zm241 223h379q133 0 204 42t71 159q0 190-306 190H440V223zm0 615h308q262 0 262 178 0 102-63.5 147T750 1208H440V838z"/><glyph unicode="C" horiz-adv-x="1507" d="M106 720.5q0 319.5 218.5 532.5t551 213 556.5-245l-154-168q-102 98-193.5 137T870 1229q-217 0-364.5-140.5T358 730t146.5-364.5T852 219q125 0 215 42t188 134l156-159Q1184-16 859.5-16t-539 208.5-214.5 528z"/><glyph unicode="D" horiz-adv-x="1601" d="M199 0v1432h491q385 0 592-187.5T1489 723t-201-528.5T674 0H199zm241 227h269q260 0 398 124t138 366q0 491-561 491H440V227z"/><glyph unicode="E" horiz-adv-x="1339" d="M199 0v1432h1005v-228H440V825h686V610H440V227h789V0H199z"/><glyph unicode="F" horiz-adv-x="1236" d="M199 0v1432h954l-2-226H440V813h635V590H440V0H199z"/><glyph unicode="G" horiz-adv-x="1550" d="M106 720.5q0 319.5 218.5 532.5T852 1466t514-180l-129-184q-84 72-169 99.5T870 1229q-217 0-364.5-140.5T358 720t143.5-366.5T849 215t341 88v393h242V207Q1229-16 852-16q-317 0-531.5 208.5T106 720.5z"/><glyph unicode="H" horiz-adv-x="1591" d="M199 0v1432h241V811h711v621h242V0h-242v586H440V0H199z"/><glyph unicode="I" horiz-adv-x="638" d="M199 0v1432h241V0H199z"/><glyph unicode="J" horiz-adv-x="1128" d="M63 164l138 190q139-133 272-133 94 0 160.5 63.5T700 475v739H246v218h696V487q0-250-127-374.5T489-12Q239-12 63 164z"/><glyph unicode="K" horiz-adv-x="1441" d="M199 0v1432h241V733l656 699h307L827 805 1411 0h-287L649 627 440 401V0H199z"/><glyph unicode="L" horiz-adv-x="1159" d="M199 0v1432h241V229h654V0H199z"/><glyph unicode="M" horiz-adv-x="2013" d="M199 0v1432h376l433-900 432 900h375V0h-242v1118l-500-993H938l-498 993V0H199z"/><glyph unicode="N" horiz-adv-x="1712" d="M199 0v1432h241l832-1070v1070h241V0h-262L440 1044V0H199z"/><glyph unicode="O" horiz-adv-x="1720" d="M106 726q0 316 217.5 528t537 212 536.5-212 217-528-217-528T860.5-14t-537 212T106 726zm248 0q0-216 146.5-367.5T860 207t359.5 151.5T1366 726t-146.5 367.5T860 1245t-359.5-151.5T354 726z"/><glyph unicode="P" horiz-adv-x="1400" d="M199 0v1432h491q326 0 475.5-125T1315 922t-152.5-381T694 420H440V0H199zm241 639h281q201 0 273.5 77t72.5 225.5-92 209.5-289 61H440V639z"/><glyph unicode="Q" horiz-adv-x="1720" d="M106 726q0 316 217.5 528t537 212 536.5-212 217-527q0-240-129-425T1141 35q70-92 176-92 78 0 152.5 41T1583 90l137-190q-178-188-407-189-131 0-252 74T891-12l-31-2q-319 0-536.5 212T106 726zm248 0q0-216 146.5-367.5T860 207t359.5 151.5T1366 726t-146.5 367.5T860 1245t-359.5-151.5T354 726z"/><glyph unicode="R" horiz-adv-x="1490" d="M199 0v1432h532q328 0 469-110.5T1341 967q0-354-309-447L1407 0h-307L758 481H440V0H199zm241 700h301q205 0 279 63.5t74 204-76 192.5-270 52H440V700z"/><glyph unicode="S" horiz-adv-x="1290" d="M82 215l151 182q217-188 451-188 117 0 185.5 50T938 392t-64.5 129-222 84T412 675t-146 83q-127 96-127 294.5t144.5 306T641 1466q137 0 272.5-45t233.5-127l-129-182q-63 57-172 94t-214.5 37-173-43-67.5-130 67.5-133 288-99.5 332-149.5T1190 404.5t-141.5-304T678-16Q342-16 82 215z"/><glyph unicode="T" horiz-adv-x="1236" d="M63 1210v222h1111v-222H739V0H498v1210H63z"/><glyph unicode="U" horiz-adv-x="1572" d="M180 629v803h242V639q0-197 98-311.5T786 213t266.5 114.5T1151 639v793h242V629q0-309-170-476T786.5-14 350 152.5 180 629z"/><glyph unicode="V" horiz-adv-x="1433" d="M6 1432h270L717 362l440 1070h270L852 0H582z"/><glyph unicode="W" horiz-adv-x="2146" d="M25 1432h260L645 401l320 1031h217l319-1031 361 1031h260L1622 0h-240l-301 981h-16L764 0H524z"/><glyph unicode="X" horiz-adv-x="1378" d="M31 0l491 735-456 697h299l319-484h10l320 484h299L856 735 1348 0h-301L694 539h-10L332 0H31z"/><glyph unicode="Y" horiz-adv-x="1277" d="M-16 1432h264l391-652 391 652h264L762 565V0H516v565z"/><glyph unicode="Z" horiz-adv-x="1382" d="M96 0v186l834 1018v6H123v222h1143v-189L434 229v-6h844V0H96z"/><glyph unicode="[" horiz-adv-x="727" d="M180-287v1837h463v-172H360V-115h283v-172H180z"/><glyph unicode="\" horiz-adv-x="1069" d="M57 1550h205L1008 0H803z"/><glyph unicode="]" horiz-adv-x="727" d="M84-115h283v1493H84v172h463V-287H84v172z"/><glyph unicode="^" horiz-adv-x="806" d="M45 1520l250 319h209l248-319H559l-158 170-157-170H45z"/><glyph unicode="_" horiz-adv-x="1478" d="M147-166h1184v-117H147v117z"/><glyph unicode="`" horiz-adv-x="1705" d="M647 1425l242 101 217-297H897z"/><glyph unicode="a" horiz-adv-x="1202" d="M84 337q0 161 119 240.5T524 657h297v41q0 217-241 217-152 0-316-110L162 948q199 158 450 158 193 0 315-97.5T1049 702V0H840v145Q706-16 480-16h-3q-170 0-281.5 96T84 337zm229 5q0-80 61.5-122t171-42T737 240t82 166v92H561q-248 0-248-156z"/><glyph unicode="b" horiz-adv-x="1376" d="M166 0v1520h229V899q135 207 354.5 207t375-151.5T1280 551t-154.5-409.5T765-16 395 164V0H166zm225 542.5q0-155.5 94.5-255T715 188t235.5 98.5 100.5 255-98.5 260T717 905 485.5 801.5t-94.5-259z"/><glyph unicode="c" horiz-adv-x="1179" d="M94 543q0 250 171 406.5T682 1106t416-170L963 770Q822 893 678.5 893t-249-95.5-105.5-246T428 297t257-104 288 139l135-148Q909-16 649-16q-227 0-391 154.5T94 543z"/><glyph unicode="d" horiz-adv-x="1376" d="M96 549q0 254 158 405.5T630 1106t351-184v598h229V0H981v164Q854-16 610-16q-207 0-360.5 155.5T96 549zm230-9.5q0-156.5 100-255T661.5 186 891 285.5t94 255-94 260T659.5 905 424 800.5t-98-261z"/><glyph unicode="e" horiz-adv-x="1265" d="M96 546q0 257 164 408.5T646 1106t378-134 156-370V444H326q8-119 108.5-191.5T664 180q205 0 311 129l131-143Q930-16 647-16q-229 0-390 152.5T96 546zm230 79h624q0 137-86 210.5T652 909t-226-76.5T326 625z"/><glyph unicode="f" horiz-adv-x="790" d="M82 905v185h137v84q0 172 103.5 273t250 101T840 1440l-95-162q-68 72-141.5 72t-114-46-40.5-124v-90h286V905H449V0H219v905H82z"/><glyph unicode="g" horiz-adv-x="1339" d="M98 577.5q0 225.5 139.5 377T593 1106t351-178v162h230V139q0-289-157-433T614.5-438 170-285l109 174q159-121 321-121h2q162 1 257 85t95 268v139q-51-96-146-153.5T594 49q-217 0-356.5 151.5T98 577.5zm226 9.5q0-134 82.5-231.5t223-97.5T857 352t87 234.5-88 238T628.5 922t-222-100.5T324 587z"/><glyph unicode="h" horiz-adv-x="1323" d="M166 0v1518h229V891q49 100 148.5 157.5T758 1106q184 0 297.5-112.5T1169 668V0H940v598q0 301-250 301-119 0-207-78.5T395 590V0H166z"/><glyph unicode="i" d="M137 1409q0 59 43 102t102.5 43 102.5-43 43-102-43-102-102.5-43-102.5 43-43 102zM166 0v1090h229V0H166z"/><glyph unicode="j" d="M-225-326l106 172q69-68 139-68h2q70 1 107 46t37 125v1141h229V-59q0-172-103.5-273.5T42-434t-267 108zm358 1735q0 59 43 102t102.5 43 102.5-43 43-102-43-102-102.5-43-102.5 43-43 102z"/><glyph unicode="k" horiz-adv-x="1189" d="M166 0v1520h229V627l443 463h295L719 657 1163 0H885L561 477 395 309V0H166z"/><glyph unicode="l" d="M166 0v1520h229V0H166z"/><glyph unicode="m" horiz-adv-x="2076" d="M166 0v1090h229V891q49 100 148.5 157.5T758 1106q258 0 350-213 162 213 403 213 184 0 298-112.5T1923 668V0h-229v598q0 301-250 301-117 0-204-74.5T1149 606V0H920v598q0 156-55.5 228.5T690 899t-207-78.5T395 590V0H166z"/><glyph unicode="n" horiz-adv-x="1323" d="M166 0v1090h229V891q55 100 152.5 157.5T758 1106q184 0 297.5-112.5T1169 668V0H940v598q0 301-250 301-119 0-207-78.5T395 590V0H166z"/><glyph unicode="o" horiz-adv-x="1335" d="M94 544.5Q94 780 258 943t409.5 163T1077 943t164-398.5-164-398T667.5-16 258 146.5t-164 398zm230 0q0-157.5 97-257T667.5 188t247 99.5 97.5 257-97.5 257-247 99.5T421 801.5t-97-257z"/><glyph unicode="p" horiz-adv-x="1376" d="M166-397v1487h229V899q135 207 354.5 207t375-151.5T1280 551t-154.5-409.5T765-16 395 164v-561H166zm225 939.5q0-155.5 94.5-255T715 188t235.5 98.5 100.5 255-98.5 260T717 905 485.5 801.5t-94.5-259z"/><glyph unicode="q" horiz-adv-x="1376" d="M96 551q0 252 156 403.5T627 1106t354-207v191h229V-397H981v561Q817-16 611.5-16T251 141.5 96 551zm230-9.5q0-156.5 100-255T661.5 188 891 287.5t94 255-94 259T659.5 905 424 801.5t-98-260z"/><glyph unicode="r" horiz-adv-x="813" d="M166 0v1090h229V870q55 102 150.5 168t202.5 68l2-232h-13q-170 0-256-110.5T395 467V0H166z"/><glyph unicode="s" horiz-adv-x="1036" d="M68 147l110 179q190-143 369-144 78 0 123 36t45 91q0 82-217 148-16 6-25 8-340 92-340 307 0 152 118 243t306 91 356-111l-86-170q-133 88-288 88-82 0-133.5-29.5T354 795q0-53 54-78 37-18 103.5-34.5t117.5-33 99-37T831 555q111-74 111-229.5T829.5 77 541-16q-119 0-247 43T68 147z"/><glyph unicode="t" horiz-adv-x="856" d="M82 905v185h137v342h230v-342h286V905H449V352q0-78 40.5-124T604 182t141 72l95-162Q720-17 574-17l-2 1Q426-16 322.5 85T219 358v547H82z"/><glyph unicode="u" horiz-adv-x="1323" d="M154 422v668h229V492q0-301 250-302 119 0 207 79t88 231v590h229V0H928v199Q873 99 775.5 41.5T565-16Q381-16 267.5 96.5T154 422z"/><glyph unicode="v" horiz-adv-x="1171" d="M16 1090h238l332-824 332 824h237L717 0H455z"/><glyph unicode="w" horiz-adv-x="1867" d="M37 1090h237l271-824 270 824h238l270-824 270 824h238L1454 0h-262L934 745 676 0H414z"/><glyph unicode="x" horiz-adv-x="1142" d="M39 0l387 555-367 535h281l233-359 242 359h272L707 557 1104 0H821L561 362 307 0H39z"/><glyph unicode="y" horiz-adv-x="1175" d="M18 1090h246l326-803 325 803h246L633-205q-47-106-135.5-167.5T303-434q-150 0-270 108l104 187q72-68 148.5-68t125 55.5T459-31q0 29-441 1121z"/><glyph unicode="z" horiz-adv-x="1107" d="M90 0v223l596 666H131v196h852V879L371 199h645V0H90z"/><glyph unicode="{" horiz-adv-x="688" d="M82 537v190h49q53 0 77.5 28.5T233 854v426q0 270 279 270h70v-190q-7 2-17 2-127 0-127-117V801q0-143-135-168 135-23 135-166V-14q0-53 30-74t114-21v-190h-70q-279 0-279 270v443q0 68-24.5 95.5T131 537H82z"/><glyph unicode="|" horiz-adv-x="526" d="M178-313v1915h170V-313H178z"/><glyph unicode="}" horiz-adv-x="688" d="M106-109q84 0 114 20.5T250-14v481q0 143 135 166-135 25-135 168v444q0 63-34 91t-66 28h-7l-37-4v190h70q279 0 279-270V854q0-70 24.5-98.5T557 727h49V537h-49q-53 0-77.5-28T455 414V-29q0-270-279-270h-70v190z"/><glyph unicode="~" horiz-adv-x="1157" d="M102 676q12 143 86 216t191 73q92 0 248-84 102-53 151-54 82 0 96 134l181-52q-12-143-87-217t-192-74q-88 0-248 87-102 53-151 53-82 0-96-133z"/><glyph/><glyph unicode="¡" horiz-adv-x="602" d="M150 1307.5q0 62.5 45 107.5t107.5 45 107.5-45 45-107.5-45-107.5-107.5-45-107.5 45-45 107.5zM158-16v258l61 739h164l59-739V-16H158z"/><glyph unicode="¢" horiz-adv-x="1200" d="M100 540.5q0 229.5 141.5 380T592 1100v243h131v-239q231-18 381-168L969 770Q844 876 723 889V195q135 14 256 137l135-148Q944 10 723-12v-238H592v238Q385 11 242.5 161T100 540.5zm230 9.5q0-126 72.5-220T592 205v676q-113-27-187.5-116T330 550z"/><glyph unicode="£" horiz-adv-x="1261" d="M121 588v200h176v256q0 248 125 362t328 114q268 0 403-230l-170-135q-84 139-217 139-98 0-162.5-56T539 1057V788h342V588H539V215h610V0H129v215h168v373H121z"/><glyph unicode="¤" horiz-adv-x="1546" d="M123 127l184 184Q198 458 198.5 647T303 979l-180 180 145 144 185-183q139 90 317 90t324-92l184 185 145-144-182-182q104-147 104.5-330.5T1235 313l188-186-143-143-195 190Q948 88 772 88t-313 86L266-16zm317 522.5q0-151.5 94.5-248T772 305t237.5 96.5 94.5 248-94.5 246.5T772 991t-237.5-95T440 649.5z"/><glyph unicode="¥" horiz-adv-x="1464" d="M72 1432h264l387-658h14l402 658h260L973 737h268V557H862l-6-12V434h385V254H854V0H598v254H209v180h389v111l-8 12H209v180h274z"/><glyph unicode="¦" horiz-adv-x="565" d="M186-49v670h193V-49H186zm0 930v669h193V881H186z"/><glyph unicode="§" horiz-adv-x="1249" d="M104 641q0 98 68 180t188 105q-166 66-165.5 229.5t120 264T621 1520q133 0 233-33t205-109l-117-164q-152 113-326 113-94 0-148-43t-54-111.5 59-109.5 269-91 314.5-130T1161 612q0-102-65.5-185T891 311q94-35 141-106.5T1079 57q0-141-119.5-240.5T639-283q-293 0-518 201L252 74Q453-92 645-92q219 0 219 139 0 66-68.5 109t-268 101T216 398 104 641zm193 8q0-96 120-159.5T723 426q106 0 177 45t71 111.5T924 692t-121 66q-147 43-261 43t-179.5-40T297 649z"/><glyph unicode="¨" horiz-adv-x="1249" d="M340 1357q0 52 37 89t89 37 89-36 37-88-38-90-90-38-88 37-36 89zm379 0q0 52 37 89t89 37 89-36 37-88-37-90-89-38-89 37-37 89z"/><glyph unicode="©" horiz-adv-x="1703" d="M111 715q0 305 217 524t524 219 524-217 217-522-217-524.5T850-25 326 192.5 111 715zm96-1.5q0-269.5 186.5-460T852 63t461.5 193T1503 717t-187.5 458.5T856 1366t-460.5-191.5-188.5-461zm254 5.5q0 182 123 294.5T889 1126t299-122l-98-121q-106 90-209 90t-179.5-68.5T625 726t76.5-185.5 188-75.5T1096 565l98-106q-139-145-317.5-145.5T579.5 425 461 719z"/><glyph unicode="ª" horiz-adv-x="720" d="M121 1110q0 150 203 150h139v18q0 100-113 100-68 0-145-51l-47 68q90 72 194 71 215 0 215-186V954h-96v68q-63-76-154.5-76T173 991t-52 119zm106 2q0-37 29-56.5t79-19.5 88 30 38 77v43H342q-115 0-115-74z"/><glyph unicode="«" horiz-adv-x="1120" d="M115 492l243 360h222L344 492l236-361H358zm405 0l244 360h221L750 492l235-361H764z"/><glyph unicode="¬" horiz-adv-x="1695" d="M137 731v180h1370V180h-168v551H137z"/><glyph unicode="­" horiz-adv-x="974" d="M147 504v215h680V504H147z"/><glyph unicode="®" horiz-adv-x="1703" d="M111 715q0 305 217 524t524 219 524-217 217-522-217-524.5T850-25 326 192.5 111 715zm96-1.5q0-269.5 186.5-460T852 63t461.5 193T1503 717t-187.5 458.5T856 1366t-460.5-191.5-188.5-461zM569 322v800h301q182 0 261-62.5t79-199.5q0-199-174-250l213-288h-172L885 590H709V322H569zm140 391h165q115 0 157 34.5t42 113.5-43 109.5-151 30.5H709V713z"/><glyph unicode="¯" horiz-adv-x="868" d="M121 1229v178h629v-178H121z"/><glyph unicode="°" horiz-adv-x="851" d="M111 1149q0 131 92 223t223 92 223-92 92-223-92-222-223-91-223 91-92 222zm106 0q0-86 60.5-147.5T425 940t147.5 61.5T633 1149t-60.5 146.5T425 1356t-147.5-60.5T217 1149z"/><glyph unicode="±" horiz-adv-x="1163" d="M98 279v172h967V279H98zm0 563v192h391v273h185v-273h391V842H674V565H489v277H98z"/><glyph unicode="²" horiz-adv-x="858" d="M135 1300q109 166 287 166 111 0 189.5-66.5T690 1219q0-63-33.5-122T532 944L338 745h379V610H145v119l252 256q86 86 122 135t36 99.5-38 85-97 34.5q-104 0-172-104z"/><glyph unicode="³" horiz-adv-x="811" d="M111 662l61 114q100-72 217-71 74 0 122 33.5t48 99T506 942t-124 39-116-14v108l197 230H158v127h495v-113l-204-229q117-2 181-73t64-183.5T607 647t-226-74-270 89z"/><glyph unicode="´" horiz-adv-x="1705" d="M692 1286l217 297 242-100-250-197H692z"/><glyph unicode="µ" horiz-adv-x="1314" d="M176-397v1487h230V492q0-301 249-302 119 0 207 79t88 231v590h230V0H950v199Q895 99 797.5 41.5T593.5-16 406 18v-415H176z"/><glyph unicode="¶" horiz-adv-x="1374" d="M72 1139q0 174 120.5 292.5T559 1550h612V-229H981v1585H752V-229H567v981q-49-6-94-7-113 0-196.5 39T152 885q-80 119-80 254z"/><glyph unicode="·" horiz-adv-x="595" d="M145 653.5q0 63.5 44 107.5t107.5 44 109-44T451 653.5 405.5 545t-109-45T189 545t-44 108.5z"/><glyph unicode="¸" horiz-adv-x="575" d="M86-389l53 117q39-20 79-20.5t62.5 23T303-213t-23.5 58.5T220-129t-60-10L233 0h146l-41-78q143-19 143-162 0-78-63.5-136T257-434 86-389z"/><glyph unicode="¹" horiz-adv-x="548" d="M84 1307v125h303V594H254v713H84z"/><glyph unicode="º" horiz-adv-x="774" d="M115 1200q0 113 77.5 189.5T387 1466t194.5-76.5T659 1200t-77.5-189.5T387 934t-194.5 76.5T115 1200zm108 1q0-75 46-122t118-47 118 47 46 122-46 122-118 47-118-47-46-122z"/><glyph unicode="»" horiz-adv-x="1120" d="M135 131l236 361-236 360h221l244-360-244-361H135zm406 0l235 361-235 360h221l244-360-244-361H541z"/><glyph unicode="¼" horiz-adv-x="1767" d="M72 1307v125h303V594H242v713H72zM446-16l764 1566h148L594-16H446zm648 227v125l305 502h155l-303-498h201v154h133V340h103V211h-103V0h-133v211h-358z"/><glyph unicode="½" horiz-adv-x="1900" d="M72 1307v125h303V594H242v713H72zM512-16l764 1566h147L659-16H512zm719 706q109 166 285 166 111 0 190.5-66.5T1786 608q0-63-34-122.5T1628 334l-196-199h378V0h-571v119l254 256q84 86 120 135t36 99-38 85-98 35q-100 0-172-104z"/><glyph unicode="¾" horiz-adv-x="1845" d="M82 662l61 114q100-72 217-71 74 0 122 33.5t48 99T477 942t-123.5 39T238 967v108l196 230H129v127h496v-113l-205-229q117-2 181.5-73T666 833.5 579 647t-226.5-74T82 662zM530-16l764 1566h148L678-16H530zm648 227v125l305 502h155l-303-498h201v154h133V340h103V211h-103V0h-133v211h-358z"/><glyph unicode="¿" horiz-adv-x="1040" d="M109 362q0 123 67 205 39 49 59.5 69.5T290 689t57.5 55.5T385 786q37 43 37 125v93h231V879q0-82-19.5-122T549 651L399 502q-47-51-47-127t49.5-126 127-50 130 48T719 375h248Q947 193 824.5 89.5T520-14 223.5 85 109 362zm268 943.5q0 62.5 46 107.5t110.5 45 111.5-44 47-106.5-46-107.5-110.5-45-111.5 44-47 106.5z"/><glyph unicode="À" horiz-adv-x="1495" d="M0 0l631 1432h233L1495 0h-266l-146 326H397L258 0H0zm401 1747l242 100 217-297H651zm97-1198h489l-246 551z"/><glyph unicode="Á" horiz-adv-x="1519" d="M0 0l631 1432h258L1520 0h-258l-144 326H401L258 0H0zm500 549h520l-260 590zm162 1003l217 297 241-100-250-197H662z"/><glyph unicode="Â" horiz-adv-x="1495" d="M0 0l631 1432h233L1495 0h-266l-146 326H397L258 0H0zm383 1550l250 275h213l250-275H897l-158 115-157-115H383zM498 549h489l-246 551z"/><glyph unicode="Ã" horiz-adv-x="1495" d="M0 0l631 1432h233L1495 0h-266l-146 326H397L258 0H0zm406 1550q0 119 48 193t134 74q55 0 153.5-48.5T870 1720q61 0 62 90h153q-6-266-188-266-53 0-148.5 48T627 1640q-68 0-70-90H406zm92-1001h489l-246 551z"/><glyph unicode="Ä" horiz-adv-x="1495" d="M0 0l631 1432h233L1495 0h-266l-146 326H397L258 0H0zm432 1668q0 52 36 89t89 37 90-36 37-88-37-90-90-38-89 37-36 89zm66-1119h489l-246 551zm313 1119q0 52 37 89t89 37 89-36 37-88-38-90-89-38-88 37-37 89z"/><glyph unicode="Å" horiz-adv-x="1495" d="M0 0l618 1407q-92 66-92 162t66.5 160.5 155 64.5 156-64.5 67.5-162-97-162.5L1495 0h-266l-146 326H397L258 0H0zm498 549h489l-246 551zm137 1031q0-50 31.5-82t82-32 81 32 30.5 82-30.5 82-81 32-82-32-31.5-82z"/><glyph unicode="Æ" horiz-adv-x="2129" d="M-23 0l750 1432h1268v-226h-764V813h686V602h-686V225h788V0H967v326H449L274 0H-23zm588 557h402v649h-60z"/><glyph unicode="Ç" horiz-adv-x="1507" d="M106 735q0 305 218.5 518t551 213 556.5-245l-154-168q-102 98-193.5 137T870 1229q-217 0-364.5-140.5T358 730t146.5-364.5T852 219q125 0 215 42t188 134l156-159Q1198-2 891-14l-33-64q143-18 143-162 0-78-63.5-136T777-434t-171 45l53 117q39-20 79-20.5t62.5 23T823-213t-23.5 58.5-59 25.5-60.5-10l68 129Q467 25 286.5 227.5T106 735z"/><glyph unicode="È" horiz-adv-x="1339" d="M199 0v1432h1005v-228H440V825h686V610H440V227h789V0H199zm204 1747l242 100 217-297H653z"/><glyph unicode="É" horiz-adv-x="1339" d="M199 0v1432h1005v-228H440V825h686V610H440V227h789V0H199zm403 1550l217 297 242-100-250-197H602z"/><glyph unicode="Ê" horiz-adv-x="1339" d="M199 0v1432h1005v-228H440V825h686V610H440V227h789V0H199zm147 1550l250 275h213l250-275H860l-158 115-157-115H346z"/><glyph unicode="Ë" horiz-adv-x="1339" d="M199 0v1432h1005v-228H440V825h686V610H440V227h789V0H199zm190 1668q0 52 37 89t89 37 89-36 37-88-38-90-90-38-88 37-36 89zm379 0q0 52 37 89t89 37 89-36 37-88-37-90-89-38-89 37-37 89z"/><glyph unicode="Ì" horiz-adv-x="638" d="M-31 1747l242 100 217-297H219zM199 0v1432h241V0H199z"/><glyph unicode="Í" horiz-adv-x="638" d="M199 0v1432h241V0H199zm12 1550l217 297 242-100-250-197H211z"/><glyph unicode="Î" horiz-adv-x="638" d="M-14 1550l250 275h213l249-275H500l-158 115-158-115H-14zM199 0v1432h241V0H199z"/><glyph unicode="Ï" horiz-adv-x="638" d="M6 1668q0 52 36 89t89 37 90-36 37-88-37-90-90-38-89 37-36 89zM199 0v1432h241V0H199zm186 1668q0 52 37 89t89 37 89-36 37-88-38-90-89-38-88 37-37 89z"/><glyph unicode="Ð" horiz-adv-x="1617" d="M53 602v215h162v615h492q385 0 591.5-187.5T1505 723t-200.5-528.5T690 0H215v602H53zm404-375h268q260 0 398.5 124T1262 717q0 492-564 491H457V817h512V602H457V227z"/><glyph unicode="Ñ" horiz-adv-x="1712" d="M199 0v1432h241l832-1070v1070h241V0h-262L440 1044V0H199zm311 1550q0 119 48 193t134 74q55 0 153.5-48.5T975 1720q61 0 61 90h154q-7-266-189-266-53 0-148 48t-122 48q-68 0-69-90H510z"/><glyph unicode="Ò" horiz-adv-x="1720" d="M106 726q0 316 217.5 528t537 212 536.5-212 217-528-217-528T860.5-14t-537 212T106 726zm248 0q0-216 146.5-367.5T860 207t359.5 151.5T1366 726t-146.5 367.5T860 1245t-359.5-151.5T354 726zm203 1021l242 100 217-297H807z"/><glyph unicode="Ó" horiz-adv-x="1720" d="M106 726q0 316 217.5 528t537 212 536.5-212 217-528-217-528T860.5-14t-537 212T106 726zm248 0q0-216 146.5-367.5T860 207t359.5 151.5T1366 726t-146.5 367.5T860 1245t-359.5-151.5T354 726zm334 824l217 297 242-100-250-197H688z"/><glyph unicode="Ô" horiz-adv-x="1720" d="M106 726q0 316 217.5 528t537 212 536.5-212 217-528-217-528T860.5-14t-537 212T106 726zm248 0q0-216 146.5-367.5T860 207t359.5 151.5T1366 726t-146.5 367.5T860 1245t-359.5-151.5T354 726zm146 824l250 275h213l249-275h-198l-158 115-158-115H500z"/><glyph unicode="Õ" horiz-adv-x="1720" d="M106 726q0 316 217.5 528t537 212 536.5-212 217-528-217-528T860.5-14t-537 212T106 726zm248 0q0-216 146.5-367.5T860 207t359.5 151.5T1366 726t-146.5 367.5T860 1245t-359.5-151.5T354 726zm162 824q0 119 48 193t134 74q55 0 153.5-48.5T981 1720q61 0 61 90h154q-6-266-188-266-53 0-148.5 48T737 1640q-68 0-69-90H516z"/><glyph unicode="Ö" horiz-adv-x="1720" d="M106 726q0 316 217.5 528t537 212 536.5-212 217-528-217-528T860.5-14t-537 212T106 726zm248 0q0-216 146.5-367.5T860 207t359.5 151.5T1366 726t-146.5 367.5T860 1245t-359.5-151.5T354 726zm181 942q0 52 35.5 89t89 37 90-36 36.5-88-36.5-90-90-38-89 37-35.5 89zm378 0q0 52 37 89t89.5 37 89-36 36.5-88-37.5-90-89-38-88.5 37-37 89z"/><glyph unicode="×" horiz-adv-x="1157" d="M98 430l351 350-349 346 131 131 349-350 348 350 129-131-346-346 348-350-129-131-350 350-351-350z"/><glyph unicode="Ø" horiz-adv-x="1720" d="M106 727q0 315 217.5 527T860 1466q125 0 248-39l111 234h204l-145-313q156-98 246-261t90-360q0-317-217-529T860-14q-109 0-207 24L537-240H332L481 80q-174 94-274.5 265T106 727zm248-2q0-133 60.5-248T580 291l434 930q-74 24-154 24-213 0-359.5-151.5T354 725zm396-508q57-10 110-10 213 0 359.5 151.5T1366 725q0 250-188 408z"/><glyph unicode="Ù" horiz-adv-x="1572" d="M180 629v803h242V639q0-197 98-311.5T786 213t266.5 114.5T1151 639v793h242V629q0-309-170-476T786.5-14 350 152.5 180 629zm330 1118l242 100 217-297H760z"/><glyph unicode="Ú" horiz-adv-x="1572" d="M180 629v803h242V639q0-197 98-311.5T786 213t266.5 114.5T1151 639v793h242V629q0-309-170-476T786.5-14 350 152.5 180 629zm463 923l217 297 242-100-250-197H643z"/><glyph unicode="Û" horiz-adv-x="1572" d="M180 629v803h242V639q0-197 98-311.5T786 213t266.5 114.5T1151 639v793h242V629q0-309-170-476T786.5-14 350 152.5 180 629zm258 921l250 275h213l250-275H952l-157 115-158-115H438z"/><glyph unicode="Ü" horiz-adv-x="1572" d="M180 629v803h242V639q0-197 98-311.5T786 213t266.5 114.5T1151 639v793h242V629q0-309-170-476T786.5-14 350 152.5 180 629zm295 1039q0 52 37 89t89 37 89-36 37-88-38-90-90-38-88 37-36 89zm379 0q0 52 37 89t89 37 89-36 37-88-37-90-89-38-89 37-37 89z"/><glyph unicode="Ý" horiz-adv-x="1277" d="M-16 1432h264l391-652 391 652h264L762 565V0H516v565zm604 88l217 297 242-101-250-196H588z"/><glyph unicode="Þ" horiz-adv-x="1404" d="M199 0v1432h241v-181h230q645 1 645-495 0-272-162-394T674 240H440V0H199zm241 459h260q203 0 285 78.5t82 224-100.5 208T666 1032H440V459z"/><glyph unicode="ß" horiz-adv-x="1333" d="M166 0v934q0 147 13.5 207.5t30.5 114 41.5 91T315 1425t86 66q111 59 258.5 59t248-41 149.5-108q92-123 92-266 0-211-213-344 152-16 227.5-123t75.5-246q0-193-135-307.5T717 0h-84v201h45q154 0 236.5 50T997 423t-81.5 180.5T696 662q-47 0-71-3v191q147 22 218.5 93t71.5 164-54 160.5-171 67.5q-156 0-219-96t-63-285V0H166z"/><glyph unicode="à" horiz-adv-x="1202" d="M84 337q0 161 119 240.5T524 657h297v41q0 217-241 217-152 0-316-110L162 948q199 158 450 158 193 0 315-97.5T1049 702V0H840v145Q705-17 477-16q-170 0-281.5 96T84 337zm229 5q0-80 61.5-122t171-42T737 240t82 166v92H561q-248 0-248-156zm15 1083l241 101 217-297H578z"/><glyph unicode="á" horiz-adv-x="1202" d="M84 337q0 161 119 240.5T524 657h297v41q0 217-241 217-152 0-316-110L162 948q199 158 450 158 193 0 315-97.5T1049 702V0H840v145Q705-17 477-16q-170 0-281.5 96T84 337zm229 5q0-80 61.5-122t171-42T737 240t82 166v92H561q-248 0-248-156zm197 887l217 297 242-101-250-196H510z"/><glyph unicode="â" horiz-adv-x="1202" d="M84 337q0 161 119 240.5T524 657h297v41q0 217-241 217-152 0-316-110L162 948q199 158 450 158 193 0 315-97.5T1049 702V0H840v145Q705-17 477-16q-170 0-281.5 96T84 337zm156 892l249 274h213l250-274H754l-158 114-158-114H240zm73-887q0-80 61.5-122t171-42T737 240t82 166v92H561q-248 0-248-156z"/><glyph unicode="ã" horiz-adv-x="1202" d="M84 337q0 161 119 240.5T524 657h297v41q0 217-241 217-152 0-316-110L162 948q199 158 450 158 193 0 315-97.5T1049 702V0H840v145Q705-17 477-16q-170 0-281.5 96T84 337zm172 892q0 119 48 192.5t134 73.5q55 0 153.5-48t129.5-48q61 0 61 90h154q-6-266-188-266-53 0-148.5 48T477 1319q-68 0-69-90H256zm57-887q0-80 61.5-122t171-42T737 240t82 166v92H561q-248 0-248-156z"/><glyph unicode="ä" horiz-adv-x="1202" d="M84 337q0 161 119 240.5T524 657h297v41q0 217-241 217-152 0-316-110L162 948q199 158 450 158 193 0 315-97.5T1049 702V0H840v145Q705-17 477-16q-170 0-281.5 96T84 337zm201 1019q0 53 35.5 89t89 36 90.5-36 37-89-37-90-90.5-37-89 37-35.5 90zm28-1014q0-80 61.5-122t171-42T737 240t82 166v92H561q-248 0-248-156zm351 1013q0 52 36.5 89t89 37 89-36 36.5-89-37.5-90-89-37-88 37-36.5 89z"/><glyph unicode="å" horiz-adv-x="1202" d="M84 337q0 161 119 240.5T524 657h297v41q0 217-241 217-152 0-316-110L162 948q199 158 450 158 193 0 315-97.5T1049 702V0H840v145Q705-17 477-16q-170 0-281.5 96T84 337zm229 5q0-80 61.5-122t171-42T737 240t82 166v92H561q-248 0-248-156zm68 1065q0 86 66.5 150.5T602 1622t155.5-64.5T825 1407t-67.5-149.5T602 1194t-154.5 63.5T381 1407zm108 1q0-50 32-82t82-32 81 32 31 82-31 82-81 32-82-32-32-82z"/><glyph unicode="æ" horiz-adv-x="1949" d="M84 338q0 160 117.5 235.5T524 649h297v49q0 217-241 217-152 0-316-110L162 948q199 158 450.5 158T975 954q147 152 371.5 152t371-134T1864 602V471h-813q2-131 95-211t222-80q184 0 291 129l131-143Q1614-16 1348.5-16T934 180Q770-17 498-16q-172 0-293 97T84 338zm229 4q0-80 61.5-122t171-42T737 240t82 166v65H561q-190 0-229-57-18-29-19-72zm740 307l581-2q-8 129-83.5 195.5T1358 909t-206-69.5-99-190.5z"/><glyph unicode="ç" horiz-adv-x="1181" d="M96 553q0 240 171 396.5T684 1106t416-170L965 770Q824 893 680.5 893t-249-95.5-105.5-246T429 297t257-104 289 139l135-148Q942 16 729-10l-35-68q144-19 144-162 0-78-63.5-136t-161-58T442-389l54 117q39-20 78.5-20.5t62 23T659-213t-23.5 58.5-59 25.5-60.5-10l68 127Q377 13 236.5 163T96 553z"/><glyph unicode="è" horiz-adv-x="1265" d="M96 546q0 257 164 408.5T646 1106t378-134 156-370V444H326q8-119 108.5-191.5T664 180q205 0 311 129l131-143Q930-16 647-16q-229 0-390 152.5T96 546zm230 79h624q0 137-86 210.5T652 909t-226-76.5T326 625zm59 800l242 101 217-297H635z"/><glyph unicode="é" horiz-adv-x="1265" d="M96 546q0 257 164 408.5T646 1106t378-134 156-370V444H326q8-119 108.5-191.5T664 180q205 0 311 129l131-143Q930-16 647-16q-229 0-390 152.5T96 546zm230 79h624q0 137-86 210.5T652 909t-226-76.5T326 625zm235 608l217 297 242-100-250-197H561z"/><glyph unicode="ê" horiz-adv-x="1265" d="M96 546q0 257 164 408.5T646 1106t378-134 156-370V444H326q8-119 108.5-191.5T664 180q205 0 311 129l131-143Q930-16 647-16q-229 0-390 152.5T96 546zm197 683l250 274h213l250-274H807l-158 114-157-114H293zm33-604h624q0 137-86 210.5T652 909t-226-76.5T326 625z"/><glyph unicode="ë" horiz-adv-x="1265" d="M96 546q0 257 164 408.5T646 1106t378-134 156-370V444H326q8-119 108.5-191.5T664 180q205 0 311 129l131-143Q930-16 647-16q-229 0-390 152.5T96 546zm230 79h624q0 137-86 210.5T652 909t-226-76.5T326 625zm6 731q0 53 37 89t89 36 89-36 37-89-38-90-90.5-37-88 37-35.5 90zm379-1q0 52 36.5 89t89 37 89.5-36 37-89-37-90-89.5-37-89 37-36.5 89z"/><glyph unicode="ì" d="M-49 1425l242 101 217-297H201zM166 0v1090h229V0H166z"/><glyph unicode="í" d="M166 0v1090h229V0H166zm31 1229l217 287 225-101-250-186H197z"/><glyph unicode="î" d="M-66 1229l250 274h213l250-274H449l-158 114-158-114H-66zM166 0v1090h229V0H166z"/><glyph unicode="ï" d="M-16 1356q0 53 36.5 89t89 36 89.5-36 37-89-38-90-90.5-37-88 37-35.5 90zM166 0v1090h229V0H166zm196 1355q0 52 37 89t89.5 37 89-36 36.5-89-36.5-90-89-37-89.5 37-37 89z"/><glyph unicode="ð" horiz-adv-x="1220" d="M102 474q0 216 143.5 354.5T592 967q145 0 221-76l4 4q-78 129-252 303l-190-121-117 111 193 123q-4 6-150 127l195 112q74-57 149-129l174 111 121-111-180-116q360-391 360-758 0-252-133-407.5T624.5-16t-376 137T102 474zm224 0q0-120 78.5-205T611 184t207 85 79 205-79 206-207 86-206.5-86T326 474z"/><glyph unicode="ñ" horiz-adv-x="1323" d="M166 0v1090h229V891q55 100 152.5 157.5T758 1106q184 0 297.5-112.5T1169 668V0H940v598q0 301-250 301-119 0-207-78.5T395 590V0H166zm172 1229q0 119 48 192.5t134 73.5q55 0 153.5-48t129.5-48q61 0 61 90h154q-7-266-189-266-53 0-148 48t-122 48q-68 0-70-90H338z"/><glyph unicode="ò" horiz-adv-x="1335" d="M94 544.5Q94 780 258 943t409.5 163T1077 943t164-398.5-164-398T667.5-16 258 146.5t-164 398zm230 0q0-157.5 97-257T667.5 188t247 99.5 97.5 257-97.5 257-247 99.5T421 801.5t-97-257zm26 880.5l242 101 217-297H600z"/><glyph unicode="ó" horiz-adv-x="1335" d="M94 544.5Q94 780 258 943t409.5 163T1077 943t164-398.5-164-398T667.5-16 258 146.5t-164 398zm230 0q0-157.5 97-257T667.5 188t247 99.5 97.5 257-97.5 257-247 99.5T421 801.5t-97-257zM563 1229l217 297 242-101-250-196H563z"/><glyph unicode="ô" horiz-adv-x="1335" d="M94 544.5Q94 780 258 943t409.5 163T1077 943t164-398.5-164-398T667.5-16 258 146.5t-164 398zM313 1229l250 274h213l250-274H827l-157 114-158-114H313zm11-684.5q0-157.5 97-257T667.5 188t247 99.5 97.5 257-97.5 257-247 99.5T421 801.5t-97-257z"/><glyph unicode="õ" horiz-adv-x="1335" d="M94 544.5Q94 780 258 943t409.5 163T1077 943t164-398.5-164-398T667.5-16 258 146.5t-164 398zm230 0q0-157.5 97-257T667.5 188t247 99.5 97.5 257-97.5 257-247 99.5T421 801.5t-97-257zm4 684.5q0 119 48 192.5t134 73.5q55 0 153.5-48t129.5-48q61 0 61 90h154q-7-266-189-266-53 0-148.5 48T549 1319q-68 0-70-90H328z"/><glyph unicode="ö" horiz-adv-x="1335" d="M94 544.5Q94 780 258 943t409.5 163T1077 943t164-398.5-164-398T667.5-16 258 146.5t-164 398zm230 0q0-157.5 97-257T667.5 188t247 99.5 97.5 257-97.5 257-247 99.5T421 801.5t-97-257zm20 811.5q0 53 37 89t89 36 89-36 37-89-38-90-90-37-88 37-36 90zm379-1q0 52 37 89t89 37 89-36 37-89-37-90-89-37-89 37-37 89z"/><glyph unicode="÷" horiz-adv-x="1163" d="M98 696v193h967V696H98zm332-263.5q0 63.5 44 107.5t107.5 44T690 540t45-107.5T690 324t-108.5-45T474 324t-44 108.5zm0 727q0 63.5 44 107.5t107.5 44 108.5-44 45-107.5-45-108.5-108.5-45-107.5 45-44 108.5z"/><glyph unicode="ø" horiz-adv-x="1335" d="M94 545q0 236 164 398.5T668 1106q90 0 170-25l90 193h205l-127-270q111-78 173-198t62-261q0-236-163.5-398.5T668-16q-57 0-133 14l-99-213H231L362 66q-125 74-196.5 200.5T94 545zm230-14q0-171 129-273l297 635q-35 8-82 8-150 0-247-99.5T324 531zm301-341q14-2 43-2 150 0 247 99.5t97 259.5-101 256z"/><glyph unicode="ù" horiz-adv-x="1323" d="M154 422v668h229V492q0-301 250-302 119 0 207 79t88 231v590h229V0H928v199Q873 99 775.5 41.5T565-16Q381-16 267.5 96.5T154 422zm192 1003l242 101 217-297H596z"/><glyph unicode="ú" horiz-adv-x="1323" d="M154 422v668h229V492q0-301 250-302 119 0 207 79t88 231v590h229V0H928v199Q873 99 775.5 41.5T565-16Q381-16 267.5 96.5T154 422zm354 811l217 297 242-100-250-197H508z"/><glyph unicode="û" horiz-adv-x="1323" d="M154 422v668h229V492q0-301 250-302 119 0 207 79t88 231v590h229V0H928v199Q873 99 775.5 41.5T565-16Q381-16 267.5 96.5T154 422zm149 807l250 274h213l250-274H817l-158 114-157-114H303z"/><glyph unicode="ü" horiz-adv-x="1323" d="M154 422v668h229V492q0-301 250-302 119 0 207 79t88 231v590h229V0H928v199Q873 99 775.5 41.5T565-16Q381-16 267.5 96.5T154 422zm178 934q0 53 37 89t89 36 89-36 37-89-38-90-90.5-37-88 37-35.5 90zm379-1q0 52 36.5 89t89 37 89.5-36 37-89-37-90-89.5-37-89 37-36.5 89z"/><glyph unicode="ý" horiz-adv-x="1175" d="M18 1090h246l326-803 325 803h246L633-205q-47-106-135.5-167.5T303-434q-150 0-270 108l104 187q72-68 148.5-68t125 55.5T459-31q0 29-441 1121zm453 196l217 297 242-100-250-197H471z"/><glyph unicode="þ" horiz-adv-x="1376" d="M166-397v1917h229V940q6 6 15.5 17.5t44 40T528 1049q102 57 220 57 237 0 384.5-160T1280 541.5t-146.5-401T743-16Q575-16 451 90q-29 25-41 41l-15 19v-547H166zm225 941.5q0-147.5 88-253T705.5 186 939 293.5t95 252-94 252T706.5 905 479 798.5t-88-254z"/><glyph unicode="ÿ" horiz-adv-x="1175" d="M18 1090h246l326-803 325 803h246L633-205q-47-106-135.5-167.5T303-434q-150 0-270 108l104 187q72-68 148.5-68t125 55.5T459-31q0 29-441 1121zm265 266q0 53 36.5 89t89 36 89.5-36 37-89-38-90-90.5-37-88 37-35.5 90zm379-1q0 52 36.5 89t89 37 89-36 36.5-89-36.5-90-89-37-89 37-36.5 89z"/><glyph unicode="Œ" horiz-adv-x="2183" d="M109 716q0 306 209.5 511T838 1432h1210v-228h-764V825h686V610h-686V227h789V0H838Q529 0 319 205T109 716zm262 1q0-209 142-357.5T860 211h182v1010H860q-207 0-348-147.5T371 717z"/><glyph unicode="œ" horiz-adv-x="2183" d="M94 544.5Q94 780 258 943t410 163q287 0 454-215 76 104 194 159.5t245 55.5q225 0 380.5-134T2097 602V444h-854q8-119 108.5-191.5T1581 180q205 0 311 129l131-143Q1847-16 1565-16q-133 0-250 55t-193 158Q956-16 668-16q-246 0-410 162.5t-164 398zm230 0q0-157.5 97-257T667.5 188t247 99.5 97.5 257-97.5 257-247 99.5T421 801.5t-97-257zm919 80.5h625q0 137-86 210.5T1570 909t-226.5-76.5T1243 625z"/><glyph unicode="ˆ" horiz-adv-x="1380" d="M340 1229l250 274h213l250-274H854l-158 114-157-114H340z"/><glyph unicode="˜" horiz-adv-x="1062" d="M195 1520q0 119 48 192.5t134 73.5q55 0 153.5-48t128.5-48q61 0 62 90h153q-6-267-188-267-53 0-148.5 48.5T416 1610q-68 0-70-90H195z"/><glyph horiz-adv-x="924"/><glyph horiz-adv-x="1849"/><glyph horiz-adv-x="924"/><glyph horiz-adv-x="1849"/><glyph horiz-adv-x="616"/><glyph horiz-adv-x="462"/><glyph horiz-adv-x="308"/><glyph horiz-adv-x="308"/><glyph horiz-adv-x="231"/><glyph horiz-adv-x="369"/><glyph horiz-adv-x="102"/><glyph unicode="‐" horiz-adv-x="974" d="M147 504v215h680V504H147z"/><glyph unicode="‑" horiz-adv-x="974" d="M147 504v215h680V504H147z"/><glyph unicode="‒" horiz-adv-x="974" d="M147 504v215h680V504H147z"/><glyph unicode="–" horiz-adv-x="1101" d="M168 463v137h766V463H168z"/><glyph unicode="—" horiz-adv-x="1484" d="M168 465v135h1149V465H168z"/><glyph unicode="‘" horiz-adv-x="442" d="M72 1160.5q0 56.5 37 109.5l120 174h125l-80-176q57-37 57.5-99.5T295 1070t-92.5-36-93 35-37.5 91.5z"/><glyph unicode="’" horiz-adv-x="444" d="M72 1024l78 176q-55 33-55.5 97.5T131 1398t92.5 36 93-35 37.5-91.5-37-109.5l-120-174H72z"/><glyph unicode="‚" horiz-adv-x="444" d="M72-166l78 176q-55 35-55.5 98.5T131 208t92.5 36 93-35 37.5-91.5T317 8L197-166H72z"/><glyph unicode="“" horiz-adv-x="757" d="M72 1160.5q0 56.5 37 109.5l120 174h125l-80-176q57-37 57.5-99.5T295 1070t-92.5-36-93 35-37.5 91.5zm313 0q0 56.5 37 109.5l121 174h125l-80-176q57-37 57-99.5t-37-98.5-92-36-93 35-38 91.5z"/><glyph unicode="”" horiz-adv-x="755" d="M72 1024l78 176q-55 33-55.5 97.5T131 1398t92.5 36 93-35 37.5-91.5-37-109.5l-120-174H72zm311 0l78 176q-55 33-55 97.5t36.5 100.5 92 36 93.5-35 38-91.5-37-109.5l-121-174H383z"/><glyph unicode="„" horiz-adv-x="755" d="M72-166l78 176q-55 35-55.5 98.5T131 208t92.5 36 93-35 37.5-91.5T317 8L197-166H72zm311 0l78 176q-55 35-55 98.5t36.5 99.5 92 36 93.5-35 38-91.5T629 8L508-166H383z"/><glyph unicode="•" horiz-adv-x="876" d="M174 647.5q0 108.5 78 186T438.5 911t186-77.5 77.5-186T624.5 461t-186-78T252 461t-78 186.5z"/><glyph unicode="…" horiz-adv-x="1429" d="M135 137.5q0 63.5 44 107.5t107.5 44T395 245t45-107.5T395 29 286.5-16 179 29t-44 108.5zm428 0q0 63.5 44 107.5t107.5 44T823 245t45-107.5T823 29 714.5-16 607 29t-44 108.5zm428 0q0 63.5 44 107.5t107.5 44 108.5-44 45-107.5T1251 29t-108.5-45T1035 29t-44 108.5z"/><glyph horiz-adv-x="369"/><glyph unicode="‹" horiz-adv-x="714" d="M115 492l243 360h222L344 492l236-361H358z"/><glyph unicode="›" horiz-adv-x="714" d="M135 131l236 361-236 360h221l244-360-244-361H135z"/><glyph horiz-adv-x="462"/><glyph unicode="€" horiz-adv-x="1558" d="M106 459v176h185q-6 49-6 98t2 72H106v176h213q68 219 240 352t391 133q326 0 516-235l-145-184q-90 96-171 135t-200 39-214-62.5T594 981h487V805H551q-2-25-2-75t6-95h526V459H610q111-213 334-213 111 0 189.5 42T1300 420l146-176Q1256 8 944 8 731 8 566 130T330 459H106z"/><glyph unicode="™" horiz-adv-x="2048" d="M121 1303v129h649v-129H516V594H375v709H121zm807-709v838h221l252-527 254 527h219V594h-141v653l-293-581h-80l-291 581V594H928z"/><glyph unicode="◼" horiz-adv-x="1085" d="M0 0v1085h1085V0H0z"/><glyph unicode="ﬁ" horiz-adv-x="1351" d="M82 905v185h137v84q0 172 103.5 273t250 101T840 1440l-95-162q-68 72-141.5 72t-114-46-40.5-124v-90h286V905H449V0H219v905H82zm846 504q0 59 43 102t102.5 43 102.5-43 43-102-43-102-102.5-43-102.5 43-43 102zM956 0v1090h230V0H956z"/><glyph unicode="ﬂ" horiz-adv-x="1351" d="M82 905v185h137v84q0 172 103.5 273t250 101T840 1440l-95-162q-68 72-141.5 72t-114-46-40.5-124v-90h286V905H449V0H219v905H82zM956 0v1520h230V0H956z"/></font>
</defs>
</svg>
